<?xml version="1.0" standalone="no"?>
<!DOCTYPE svg PUBLIC "-//W3C//DTD SVG 20010904//EN"
 "http://www.w3.org/TR/2001/REC-SVG-20010904/DTD/svg10.dtd">
<svg version="1.0" xmlns="http://www.w3.org/2000/svg"
 width="580.000000pt" height="580.000000pt" viewBox="0 0 580.000000 580.000000"
 preserveAspectRatio="xMidYMid meet">
<metadata>
Created by potrace 1.14, written by Peter Selinger 2001-2017
</metadata>
<g transform="translate(0.000000,580.000000) scale(0.100000,-0.100000)"
fill="#000000" stroke="none">
<path d="M781 4436 c-5 -11 -18 -48 -30 -80 -24 -65 -52 -119 -63 -124 -5 -2
-8 -10 -8 -17 0 -7 -3 -15 -8 -17 -4 -1 -25 -25 -47 -51 -57 -71 -217 -179
-284 -192 -11 -2 -25 -6 -29 -9 -5 -3 -31 -8 -58 -12 -100 -13 -104 -16 -97
-67 3 -18 5 -134 5 -259 1 -248 -3 -234 61 -209 28 11 155 16 192 7 11 -2 31
-9 45 -14 14 -5 29 -10 33 -10 4 -1 34 -17 67 -37 179 -109 275 -342 217 -528
-32 -104 -59 -149 -136 -225 -75 -74 -147 -117 -219 -128 -19 -3 -44 -8 -56
-10 -46 -9 -113 -5 -154 10 l-44 16 7 -83 c4 -45 7 -159 7 -253 l0 -171 29 2
c16 1 32 -2 35 -7 3 -4 9 -6 14 -3 28 18 253 -74 308 -125 12 -11 24 -20 27
-20 10 0 93 -91 125 -135 27 -40 56 -97 80 -165 8 -19 17 -39 21 -45 11 -15
3129 -12 3138 3 3 6 6 59 5 119 l-1 108 146 0 c80 0 149 -4 152 -9 4 -5 8 -56
8 -114 1 -58 4 -108 6 -110 10 -10 97 -6 103 5 4 6 7 61 6 122 0 72 3 111 10
112 51 4 270 3 278 -2 10 -7 15 -180 5 -196 -2 -4 -1 -17 3 -28 6 -19 16 -20
138 -20 l130 -1 18 58 c9 32 21 58 26 58 4 0 7 3 6 8 -5 17 95 153 157 214 29
28 157 110 179 114 6 2 27 8 46 15 59 20 64 22 105 26 22 2 49 5 59 6 18 2 19
14 21 265 1 144 0 262 -2 262 -2 0 -12 -4 -21 -9 -41 -22 -198 -35 -247 -21
-92 27 -168 67 -205 108 -89 99 -127 168 -151 277 -11 50 -13 122 -5 160 24
115 67 198 140 270 100 99 210 144 336 139 79 -3 101 -8 135 -30 14 -9 28 -14
32 -11 8 8 12 557 4 559 -3 0 -31 2 -61 3 -30 1 -75 6 -100 10 -53 8 -187 75
-227 113 -15 15 -38 34 -49 42 -26 18 -114 125 -114 138 0 5 -9 17 -20 27 -10
9 -19 20 -18 24 1 3 -4 20 -11 36 -7 17 -21 52 -30 80 l-16 49 -125 0 -125 1
-1 -95 c-1 -52 -2 -105 -3 -117 -1 -17 -9 -23 -43 -29 -73 -12 -101 -12 -147
3 -24 8 -54 13 -67 10 -42 -8 -48 6 -50 105 -1 51 -2 99 -3 105 -1 9 -18 12
-53 10 l-53 -2 0 -105 c0 -97 -2 -105 -22 -115 -24 -12 -258 -13 -270 -1 -4 4
-8 54 -8 111 -1 58 -4 108 -8 112 -4 3 -718 7 -1588 8 l-1581 2 -7 -21z m3878
-341 c20 -21 24 -50 22 -201 l-1 -71 -137 1 c-76 1 -143 4 -149 8 -14 9 -13
243 2 258 6 6 21 12 34 15 12 2 25 6 27 9 3 2 45 4 94 3 74 -2 92 -6 108 -22z
m-413 -10 c1 -11 2 -25 3 -32 1 -6 9 -19 18 -28 24 -25 22 -138 -4 -173 -10
-14 -28 -27 -38 -28 -16 -3 -115 -4 -236 -3 -15 0 -17 16 -17 127 0 70 2 134
4 143 4 14 23 16 137 15 124 -1 132 -2 133 -21z m19 -507 c0 -97 -4 -141 -13
-150 -19 -19 -270 -19 -277 0 -10 27 -7 275 4 282 6 3 73 6 149 6 l137 0 0
-138z m405 122 c10 -16 6 -242 -4 -259 -25 -40 -177 -51 -217 -15 -10 9 -29
22 -42 28 -21 11 -22 18 -23 133 -2 143 -20 129 160 127 80 -1 121 -6 126 -14z
m-411 -414 c12 -12 15 -42 16 -132 0 -72 -3 -118 -10 -120 -14 -6 -256 -11
-280 -6 -19 3 -20 11 -18 120 1 64 2 125 2 136 1 12 6 16 16 13 8 -4 16 -3 19
1 2 4 57 6 122 5 90 -2 121 -6 133 -17z m391 11 c24 -12 25 -17 27 -112 3
-132 -2 -160 -30 -172 -33 -14 -186 -8 -228 10 -42 17 -45 27 -43 127 2 125 2
124 31 141 34 21 206 25 243 6z m-402 -400 c21 -22 27 -227 7 -254 -12 -15
-31 -18 -149 -19 l-136 0 -1 25 c-4 132 0 254 9 260 5 3 65 5 132 5 97 -1 125
-5 138 -17z m419 10 c4 -5 8 -65 9 -134 1 -128 -6 -152 -42 -154 -89 -5 -157
0 -202 16 -58 21 -54 10 -53 150 0 102 3 117 27 126 26 9 251 6 261 -4z m-416
-425 c11 -15 16 -48 17 -135 3 -137 12 -129 -141 -129 -148 0 -154 1 -155 15
-3 45 -2 259 2 265 2 4 62 6 133 5 113 -2 130 -4 144 -21z m409 12 c12 -12 25
-274 13 -275 -4 0 -70 -2 -146 -3 -115 -1 -138 1 -141 14 -3 13 -1 233 3 253
0 4 15 5 31 2 18 -3 39 0 49 7 23 16 175 18 191 2z m-400 -393 c3 0 5 -66 5
-144 l1 -144 -133 1 c-171 1 -165 -4 -166 153 0 66 2 124 6 130 5 8 258 12
287 4z m415 -134 c0 -161 14 -147 -142 -150 -147 -3 -147 -3 -148 155 0 67 3
125 7 128 4 3 69 5 145 5 l138 -1 0 -137z"/>
</g>
</svg>
